# xmcd CD database file
#
# Track frame offsets:
#	150
#	18667
#	41545
#	66547
#	92762
#	117077
#	137885
#	153077
#	172837
#	184422
#
# Disc length: 2790 seconds
#
# Revision: 1
# Processed by: cddbd v1.5.2PL0 Copyright (c) Steve Scherf et al.
# Submitted via: CDex 1.70beta2
#
DISCID=840ae40a
DTITLE=Ernest Ray Everett - All It's Gonna Take
DYEAR=1900
DGENRE=Country
TTITLE0=King Of Wasting Time
TTITLE1=Runway 13
TTITLE2=Lady In Black
TTITLE3=All It's Gonna Take
TTITLE4=Wild One
TTITLE5=Wonna Be Free
TTITLE6=Angel Child
TTITLE7=Lady Of The Evening
TTITLE8=Where's The Fire
TTITLE9=Let's Play Doctor
EXTD=
EXTT0=
EXTT1=
EXTT2=
EXTT3=
EXTT4=
EXTT5=
EXTT6=
EXTT7=
EXTT8=
EXTT9=
PLAYORDER=
